<svg xmlns="http://www.w3.org/2000/svg" width="34" height="34"><style></style><g id="service"><g id="1"><path id="ALARM" d="M31.74 11.5a15.729 15.729 0 00-8.24-8.24c1-.79 2.25-1.26 3.63-1.26C30.37 2 33 4.63 33 7.87c0 1.37-.47 2.63-1.26 3.63zM31.5 18c0 3.85-1.51 7.34-3.96 9.94l2.03 2.03c.26.27.43.64.43 1.05 0 .82-.66 1.48-1.48 1.48-.41 0-.78-.17-1.05-.43l-2.18-2.18a14.482 14.482 0 01-16.57.01l-2.16 2.16a1.498 1.498 0 11-2.12-2.12l2.01-2.01C4.01 25.33 2.5 21.85 2.5 18 2.5 9.99 8.99 3.5 17 3.5S31.5 9.99 31.5 18zM17 6.5C10.65 6.5 5.5 11.65 5.5 18S10.65 29.5 17 29.5 28.5 24.35 28.5 18 23.35 6.5 17 6.5zm6 13h-6c-.83 0-1.5-.67-1.5-1.5v-8c0-.83.67-1.5 1.5-1.5s1.5.67 1.5 1.5v6.5H23c.83 0 1.5.67 1.5 1.5s-.67 1.5-1.5 1.5zM2.29 11.71A5.965 5.965 0 011 8c0-3.31 2.69-6 6-6 1.4 0 2.69.48 3.71 1.29a15.977 15.977 0 00-8.42 8.42z" fill="#95e1d3"/></g></g></svg>