<svg xmlns="http://www.w3.org/2000/svg" width="35" height="34"><style></style><g id="service"><g id="4"><path id="BOOK 2" d="M33.06 26.89l-14.47 5.99c-.18.08-.38.12-.59.12-.21 0-.41-.04-.59-.12L2.94 26.89c-.55-.22-.94-.76-.94-1.39v-23C2 1.67 2.67 1 3.5 1c.2 0 .4.04.57.11h.01c0 .01 0 .01.01.01L18 6.88l13.91-5.76s.01 0 .01-.01h.01c.17-.07.37-.11.57-.11.83 0 1.5.67 1.5 1.5v23c0 .63-.39 1.17-.94 1.39zM16.5 9.5L5 4.74V24.5l11.5 4.76V9.5zM31 4.74L19.5 9.5v19.76L31 24.5V4.74zm-9.12 6.89l5.5-2.5c.19-.08.4-.13.62-.13.83 0 1.5.67 1.5 1.5 0 .61-.36 1.13-.88 1.37l-5.5 2.5c-.19.08-.4.13-.62.13-.83 0-1.5-.67-1.5-1.5 0-.61.36-1.13.88-1.37zm0 5.5l5.5-2.5c.19-.08.4-.13.62-.13.83 0 1.5.67 1.5 1.5 0 .61-.36 1.13-.88 1.37l-5.5 2.5v-.01c-.19.09-.4.14-.62.14-.83 0-1.5-.67-1.5-1.5 0-.61.36-1.13.88-1.37zm0 5.5l5.5-2.5c.19-.08.4-.13.62-.13.83 0 1.5.67 1.5 1.5 0 .61-.36 1.13-.88 1.37l-5.5 2.5c-.19.08-.4.13-.62.13-.83 0-1.5-.67-1.5-1.5 0-.61.36-1.13.88-1.37zM8 9c.22 0 .43.05.62.13l5.5 2.5c.52.24.88.76.88 1.37 0 .83-.67 1.5-1.5 1.5a1.6 1.6 0 01-.62-.13l-5.5-2.5c-.52-.24-.88-.76-.88-1.37C6.5 9.67 7.17 9 8 9zm0 5.5c.22 0 .43.05.62.13l5.5 2.5c.52.24.88.76.88 1.37 0 .83-.67 1.5-1.5 1.5-.22 0-.43-.05-.62-.14v.01l-5.5-2.5c-.52-.24-.88-.76-.88-1.37 0-.83.67-1.5 1.5-1.5zM8 20c.22 0 .43.05.62.13l5.5 2.5c.52.24.88.76.88 1.37 0 .83-.67 1.5-1.5 1.5a1.6 1.6 0 01-.62-.13l-5.5-2.5c-.52-.24-.88-.76-.88-1.37 0-.83.67-1.5 1.5-1.5z" fill="#95e1d3"/></g></g></svg>