<svg xmlns="http://www.w3.org/2000/svg" width="35" height="33"><style></style><g id="service"><g id="5"><path id="HOME" d="M34 17.5c0 .83-.67 1.5-1.5 1.5-.4 0-.75-.16-1.02-.41v.01L18.04 5.16 18 5.12 4.55 18.57a1.498 1.498 0 11-2.09-2.15L16.92 1.96c.27-.28.66-.46 1.08-.46h.09c.02 0 .05.01.07.01.37.04.7.21.94.47l5.9 5.9V6.5c0-.83.67-1.5 1.5-1.5s1.5.67 1.5 1.5v4.38l5.6 5.6h-.01c.25.27.41.62.41 1.02zM31 20v10.5c0 .83-.67 1.5-1.5 1.5h-3V20h-6v12h-14c-.83 0-1.5-.67-1.5-1.5V20L18 7l13 13zm-15.5 0h-6v6h6v-6z" fill="#95e1d3"/></g></g></svg>