<svg xmlns="http://www.w3.org/2000/svg" width="36" height="34"><style></style><g id="service"><g id="6"><path id="IMAGE" d="M32.5 33h-29c-.83 0-1.5-.67-1.5-1.5v-29C2 1.67 2.67 1 3.5 1h29c.83 0 1.5.67 1.5 1.5v29c0 .83-.67 1.5-1.5 1.5zM31 4H5v26h26V4zM8.5 5.5H14c.83 0 1.5.67 1.5 1.5s-.67 1.5-1.5 1.5H9.5V13c0 .83-.67 1.5-1.5 1.5s-1.5-.67-1.5-1.5V5.5h2zM6.5 21c0-.83.67-1.5 1.5-1.5s1.5.67 1.5 1.5v4.5H14c.83 0 1.5.67 1.5 1.5s-.67 1.5-1.5 1.5H6.5V21zM22 5.5h7.5V13c0 .83-.67 1.5-1.5 1.5s-1.5-.67-1.5-1.5V8.5H22c-.83 0-1.5-.67-1.5-1.5s.67-1.5 1.5-1.5zm0 20h4.5V21c0-.83.67-1.5 1.5-1.5s1.5.67 1.5 1.5v7.5H22c-.83 0-1.5-.67-1.5-1.5s.67-1.5 1.5-1.5z" fill="#95e1d3"/></g></g></svg>