<svg xmlns="http://www.w3.org/2000/svg" width="20" height="17"><style></style><g id="banner"><g id="menu"><path id="SHOPPING CART" d="M18.73 4.66l-2.48 5.5c-.12.27-.38.47-.7.49l-7.12.47.41 1.18h7.76c.91 0 1.65.74 1.65 1.65 0 .91-.74 1.65-1.65 1.65-.91 0-1.65-.74-1.65-1.65h-7.7c0 .91-.74 1.65-1.65 1.65-.91 0-1.65-.74-1.65-1.65 0-.91.74-1.65 1.65-1.65h1.49L3.91 3.22H2.02a.826.826 0 010-1.65H4.5c.36 0 .66.24.78.56l.48 1.37h12.21a.826.826 0 01.76 1.16zm-12.39.49l1.52 4.36 7.09-.48 1.75-3.88H6.34z" fill="#fff"/></g></g></svg>