<svg xmlns="http://www.w3.org/2000/svg" width="35" height="35"><style></style><g id="service"><g id="2"><path id="LINE GRAPH" d="M31.5 34h-29c-.83 0-1.5-.67-1.5-1.5v-29C1 2.67 1.67 2 2.5 2h29c.83 0 1.5.67 1.5 1.5v29c0 .83-.67 1.5-1.5 1.5zM30 5H4v26h26V5zM6.22 18.24h-.01l4-2.5h.01c.22-.14.49-.22.78-.22.31 0 .6.09.84.25h.01l6.63 4.42 7.63-5.4c.25-.18.56-.28.89-.28a1.498 1.498 0 01.88 2.71l-8.5 6c-.25.18-.55.29-.88.29-.32 0-.62-.11-.86-.28l-6.66-4.43-3.13 1.95c-.24.17-.54.27-.85.27a1.498 1.498 0 01-.78-2.78z" fill="#95e1d3"/></g></g></svg>