<svg xmlns="http://www.w3.org/2000/svg"><defs><symbol id="icon-facebook" viewBox="0 0 17 32"><path d="M14.444 2.428v4.546s-3.354-.331-4.193.949c-.452.706-.188 2.759-.221 4.237h4.436c-.375 1.721-.64 2.891-.916 4.392H9.997v14.124H3.84V16.607H1.225V12.16h2.582c.143-3.255.188-6.477 1.799-8.11 1.821-1.843 3.553-1.622 8.839-1.622z"/></symbol><symbol id="icon-instagram" viewBox="0 0 32 32"><path d="M27.086 30.629H5.143a3.653 3.653 0 01-3.657-3.657V5.029a3.653 3.653 0 013.657-3.657h21.943a3.653 3.653 0 013.657 3.657v21.943a3.653 3.653 0 01-3.657 3.657zM16.114 10.331a5.664 5.664 0 00-5.143 3.291c-.011.023-.023.046-.023.057a5.356 5.356 0 00-.149.377l-.069.171c-.046.126-.08.263-.114.389-.011.057-.034.126-.046.183-.023.137-.046.274-.069.423 0 .057-.023.114-.023.171a5.668 5.668 0 005.635 6.275 5.668 5.668 0 005.635-6.275c0-.057-.023-.114-.023-.171-.023-.149-.046-.286-.069-.423-.023-.057-.034-.126-.046-.183-.034-.126-.069-.263-.114-.389l-.069-.171c-.046-.126-.091-.251-.149-.377a.184.184 0 00-.023-.057 5.663 5.663 0 00-5.143-3.291zm11.337-4.205c0-.811-.651-1.463-1.463-1.463h-2.926c-.811 0-1.463.651-1.463 1.463v2.926c0 .811.651 1.463 1.463 1.463h2.926c.811 0 1.463-.651 1.463-1.463V6.126zm0 7.497h-2.697a8.96 8.96 0 01-8.64 11.337 8.96 8.96 0 01-8.64-11.337H4.777v12.251c0 .811.651 1.463 1.463 1.463h19.749c.811 0 1.463-.651 1.463-1.463V13.623z"/></symbol><symbol id="icon-pinterest" viewBox="0 0 25 32"><path d="M11.09 19.697c-.232.927-.463 1.887-.706 2.825-.232.938-.441 1.876-.783 2.726-.574 1.423-1.302 2.781-2.262 3.895-.629.728-.497.441-.684.397-.154-.033-.166-.177-.188-.375-.154-1.126-.055-2.428 0-3.686.066-1.446.375-2.637.651-3.84.541-2.273 1.048-4.502 1.589-6.797.033-.154.132-.408.099-.486-.243-.64-.408-1.214-.474-1.876a6.006 6.006 0 01.154-2.152c.298-1.17 1.004-2.196 2.086-2.582.695-.232 1.457-.121 1.92.154.474.276.806.728.949 1.368.166.684.044 1.49-.088 2.086-.287 1.346-.673 2.361-1.026 3.652-.177.651-.375 1.313-.21 1.997.143.64.474 1.081.938 1.412.463.342 1.015.53 1.788.508 1.357-.055 2.295-.916 2.924-1.732 1.004-1.313 1.622-3.079 1.854-5.175.066-.673.121-1.457.077-2.218-.099-1.423-.541-2.56-1.247-3.443-.673-.839-1.622-1.512-2.77-1.887s-2.737-.497-4.138-.254c-2.56.43-4.359 1.887-5.418 3.895-.563 1.048-.927 2.262-.927 3.763 0 1.159.287 2.052.75 2.759.143.221.353.408.497.662.21.353-.022.894-.132 1.28-.121.474-.132 1.114-.673 1.126-.232.011-.519-.154-.706-.265-1.446-.794-2.317-2.24-2.67-4.127a9.662 9.662 0 010-3.564c.21-1.07.596-2.052 1.026-2.847a10.237 10.237 0 013.818-3.939c1.236-.728 2.626-1.236 4.314-1.479a14.719 14.719 0 011.766-.143c1.843-.088 3.52.32 4.778.883a9.696 9.696 0 013.288 2.372c.927 1.015 1.6 2.185 2.03 3.652.221.761.43 1.578.43 2.527 0 .938-.199 1.777-.331 2.615-.53 3.112-2.008 5.672-4.237 7.117a7.038 7.038 0 01-1.942.894c-.728.221-1.567.375-2.472.32-.872-.066-1.589-.298-2.185-.64s-1.103-.75-1.457-1.379z"/></symbol><symbol id="icon-twitter" viewBox="0 0 37 32"><path d="M24.68 2.133c2.72-.053 4.16.947 5.533 2.2 1.173-.107 2.693-.76 3.587-1.213l.88-.48c-.52 1.387-1.213 2.467-2.28 3.293-.227.187-.467.427-.76.547v.013c1.52-.013 2.773-.693 3.96-1.067v.013c-.627.987-1.467 2-2.373 2.72-.36.293-.733.587-1.093.867.013 1.613-.027 3.147-.32 4.507-1.76 7.853-6.387 13.187-13.72 15.48-2.64.813-6.893 1.16-9.907.413-1.507-.373-2.853-.8-4.12-1.347a17.34 17.34 0 01-1.987-1.027c-.2-.12-.413-.253-.613-.373.68.013 1.48.2 2.24.08.68-.107 1.36-.08 2-.213 1.587-.347 2.987-.813 4.2-1.52.587-.347 1.48-.747 1.893-1.24-.787.013-1.493-.173-2.08-.373-2.267-.8-3.587-2.28-4.44-4.48.68.067 2.667.253 3.12-.147-.867-.04-1.693-.547-2.28-.92-1.827-1.133-3.32-3.04-3.307-5.987.24.107.48.227.72.333.453.2.92.307 1.467.413.24.053.693.187.96.08h-.04c-.347-.4-.92-.68-1.28-1.12-1.16-1.453-2.267-3.693-1.573-6.347.187-.68.467-1.28.76-1.827.013 0 .027.013.027.013.147.293.44.493.64.733.6.747 1.333 1.413 2.08 2 2.56 2 4.867 3.227 8.56 4.133.933.227 2.027.413 3.147.413-.32-.92-.213-2.4.027-3.293.627-2.227 1.987-3.84 3.973-4.693.467-.213 1-.36 1.547-.48.293-.04.573-.067.853-.107z"/></symbol><symbol id="icon-cart" viewBox="0 0 38 32"><path d="M35.256 8.772l-4.668 10.353a1.545 1.545 0 01-1.318.922l-13.402.885.772 2.221h14.607c1.713 0 3.106 1.393 3.106 3.106s-1.393 3.106-3.106 3.106a3.11 3.11 0 01-3.106-3.106H13.647c0 1.713-1.393 3.106-3.106 3.106s-3.106-1.393-3.106-3.106a3.11 3.11 0 013.106-3.106h2.805L7.36 6.061H3.802c-.847 0-1.544-.678-1.544-1.544s.696-1.562 1.544-1.562H8.47c.678 0 1.242.452 1.468 1.054l.904 2.579h22.984a1.554 1.554 0 011.43 2.184zm-23.322.922l2.861 8.207 13.346-.904 3.294-7.304H11.934z"/></symbol><symbol id="icon-glass" viewBox="0 0 32 32"><path d="M29.312 25.568c.48.48.768 1.136.768 1.872a2.643 2.643 0 01-2.64 2.64 2.69 2.69 0 01-1.872-.768l-7.728-7.744a10.518 10.518 0 01-5.36 1.472c-5.84 0-10.56-4.736-10.56-10.56 0-5.84 4.72-10.56 10.56-10.56s10.56 4.72 10.56 10.56c0 1.952-.544 3.776-1.472 5.36l7.744 7.728zM12.48 4.56c-4.368 0-7.92 3.552-7.92 7.92s3.552 7.92 7.92 7.92 7.92-3.552 7.92-7.92-3.552-7.92-7.92-7.92z"/></symbol></defs></svg>